<svg width="26" height="26" viewBox="0 0 26 26" fill="none" xmlns="http://www.w3.org/2000/svg">
<path d="M1.35355 0.646447C1.15829 0.451184 0.841709 0.451184 0.646447 0.646447C0.451184 0.841709 0.451184 1.15829 0.646447 1.35355L1.35355 0.646447ZM24.6464 25.3536C24.8417 25.5488 25.1583 25.5488 25.3536 25.3536C25.5488 25.1583 25.5488 24.8417 25.3536 24.6464L24.6464 25.3536ZM0.646447 1.35355L24.6464 25.3536L25.3536 24.6464L1.35355 0.646447L0.646447 1.35355Z" fill="#94877F"/>
<path d="M25.3536 1.35355C25.5488 1.15829 25.5488 0.841709 25.3536 0.646447C25.1583 0.451184 24.8417 0.451184 24.6464 0.646447L25.3536 1.35355ZM0.646448 24.6464C0.451186 24.8417 0.451186 25.1583 0.646448 25.3536C0.84171 25.5488 1.15829 25.5488 1.35355 25.3536L0.646448 24.6464ZM24.6464 0.646447L0.646448 24.6464L1.35355 25.3536L25.3536 1.35355L24.6464 0.646447Z" fill="#94877F"/>
</svg>
